HIERARCHY
ROOT Hips
{
  OFFSET -13.450 4.569 -301.866
  CHANNELS 6 Xposition Yposition Zposition Zrotation Xrotation Yrotation
  JOINT LeftUpLeg
  {
    OFFSET 8.009 -7.699 2.075
    CHANNELS 6 Xposition Yposition Zposition Zrotation Xrotation Yrotation
    JOINT LeftLeg
    {
      OFFSET 0.000 -50.681 0.000
      CHANNELS 6 Xposition Yposition Zposition Zrotation Xrotation Yrotation
      JOINT LeftFoot
      {
        OFFSET -0.000 -40.838 -0.000
        CHANNELS 6 Xposition Yposition Zposition Zrotation Xrotation Yrotation
        End Site
        {
          OFFSET -0.000 -10.599 6.119
        }
      }
    }
  }
  JOINT RightUpLeg
  {
    OFFSET -7.746 -7.742 1.177
    CHANNELS 6 Xposition Yposition Zposition Zrotation Xrotation Yrotation
    JOINT RightLeg
    {
      OFFSET 0.000 -49.975 0.000
      CHANNELS 6 Xposition Yposition Zposition Zrotation Xrotation Yrotation
      JOINT RightFoot
      {
        OFFSET -0.000 -40.767 -0.000
        CHANNELS 6 Xposition Yposition Zposition Zrotation Xrotation Yrotation
        End Site
        {
          OFFSET 0.000 -8.028 4.635
        }
      }
    }
  }
  JOINT Spine
  {
    OFFSET 0.000 6.275 -6.275
    CHANNELS 6 Xposition Yposition Zposition Zrotation Xrotation Yrotation
    JOINT LeftShoulder
    {
      OFFSET -0.000 32.735 0.000
      CHANNELS 6 Xposition Yposition Zposition Zrotation Xrotation Yrotation
      JOINT LeftArm
      {
        OFFSET 18.727 0.000 -0.000
        CHANNELS 6 Xposition Yposition Zposition Zrotation Xrotation Yrotation
        JOINT LeftForeArm
        {
          OFFSET 27.249 0.000 0.000
          CHANNELS 6 Xposition Yposition Zposition Zrotation Xrotation Yrotation
          JOINT LeftHand
          {
            OFFSET 27.378 0.000 -0.000
            CHANNELS 6 Xposition Yposition Zposition Zrotation Xrotation Yrotation
            JOINT LeftHandThumb1
            {
            OFFSET 4.970 -0.620 3.390
            CHANNELS 6 Xposition Yposition Zposition Zrotation Xrotation Yrotation
              JOINT LeftHandThumb2
              {
              OFFSET 2.150 -0.000 0.000
              CHANNELS 6 Xposition Yposition Zposition Zrotation Xrotation Yrotation
                JOINT LeftHandThumb3
                {
                OFFSET 2.200 -0.000 0.000
                CHANNELS 6 Xposition Yposition Zposition Zrotation Xrotation Yrotation
                  JOINT LeftHandThumb4
                  {
                  OFFSET 1.700 -0.000 0.000
                  CHANNELS 6 Xposition Yposition Zposition Zrotation Xrotation Yrotation
                  }
                }
              }
            }
            JOINT LeftHandIndex1
            {
            OFFSET 8.730 0.680 2.070
            CHANNELS 6 Xposition Yposition Zposition Zrotation Xrotation Yrotation
              JOINT LeftHandIndex2
              {
              OFFSET 2.670 -0.000 0.000
              CHANNELS 6 Xposition Yposition Zposition Zrotation Xrotation Yrotation
                JOINT LeftHandIndex3
                {
                OFFSET 2.130 -0.000 0.000
                CHANNELS 6 Xposition Yposition Zposition Zrotation Xrotation Yrotation
                  JOINT LeftHandIndex4
                  {
                  OFFSET 1.800 -0.000 0.000
                  CHANNELS 6 Xposition Yposition Zposition Zrotation Xrotation Yrotation
                  }
                }
              }
            }
            JOINT LeftHandMiddle1
            {
            OFFSET 9.220 0.670 0.550
            CHANNELS 6 Xposition Yposition Zposition Zrotation Xrotation Yrotation
              JOINT LeftHandMiddle2
              {
              OFFSET 2.660 -0.000 0.000
              CHANNELS 6 Xposition Yposition Zposition Zrotation Xrotation Yrotation
                JOINT LeftHandMiddle3
                {
                OFFSET 2.280 -0.000 0.000
                CHANNELS 6 Xposition Yposition Zposition Zrotation Xrotation Yrotation
                  JOINT LeftHandMiddle4
                  {
                  OFFSET 1.500 -0.000 0.000
                  CHANNELS 6 Xposition Yposition Zposition Zrotation Xrotation Yrotation
                  }
                }
              }
            }
            JOINT LeftHandRing1
            {
            OFFSET 9.250 0.670 -1.130
            CHANNELS 6 Xposition Yposition Zposition Zrotation Xrotation Yrotation
              JOINT LeftHandRing2
              {
              OFFSET 2.470 -0.000 0.000
              CHANNELS 6 Xposition Yposition Zposition Zrotation Xrotation Yrotation
                JOINT LeftHandRing3
                {
                OFFSET 2.210 -0.000 0.000
                CHANNELS 6 Xposition Yposition Zposition Zrotation Xrotation Yrotation
                  JOINT LeftHandRing4
                  {
                  OFFSET 1.800 -0.000 0.000
                  CHANNELS 6 Xposition Yposition Zposition Zrotation Xrotation Yrotation
                  }
                }
              }
            }
            JOINT LeftHandPinky1
            {
            OFFSET 9.350 0.660 -2.720
            CHANNELS 6 Xposition Yposition Zposition Zrotation Xrotation Yrotation
              JOINT LeftHandPinky2
              {
              OFFSET 1.630 -0.000 0.000
              CHANNELS 6 Xposition Yposition Zposition Zrotation Xrotation Yrotation
                JOINT LeftHandPinky3
                {
                OFFSET 1.710 -0.000 0.000
                CHANNELS 6 Xposition Yposition Zposition Zrotation Xrotation Yrotation
                  JOINT LeftHandPinky4
                  {
                  OFFSET 1.800 -0.000 0.000
                  CHANNELS 6 Xposition Yposition Zposition Zrotation Xrotation Yrotation
                  }
                }
              }
            }
          }
        }
      }
    }
    JOINT RightShoulder
    {
      OFFSET -0.000 32.735 0.000
      CHANNELS 6 Xposition Yposition Zposition Zrotation Xrotation Yrotation
      JOINT RightArm
      {
        OFFSET -18.567 0.000 -0.000
        CHANNELS 6 Xposition Yposition Zposition Zrotation Xrotation Yrotation
        JOINT RightForeArm
        {
          OFFSET -27.745 0.000 0.000
          CHANNELS 6 Xposition Yposition Zposition Zrotation Xrotation Yrotation
          JOINT RightHand
          {
            OFFSET -28.243 -0.000 -0.000
            CHANNELS 6 Xposition Yposition Zposition Zrotation Xrotation Yrotation
            JOINT RightHandThumb1
            {
            OFFSET -4.970 -0.620 3.390
            CHANNELS 6 Xposition Yposition Zposition Zrotation Xrotation Yrotation
              JOINT RightHandThumb2
              {
              OFFSET -2.150 0.000 0.000
              CHANNELS 6 Xposition Yposition Zposition Zrotation Xrotation Yrotation
                JOINT RightHandThumb3
                {
                OFFSET -2.200 0.000 0.000
                CHANNELS 6 Xposition Yposition Zposition Zrotation Xrotation Yrotation
                  JOINT RightHandThumb4
                  {
                  OFFSET -1.700 0.000 0.000
                  CHANNELS 6 Xposition Yposition Zposition Zrotation Xrotation Yrotation
                  }
                }
              }
            }
            JOINT RightHandIndex1
            {
            OFFSET -8.730 0.680 2.070
            CHANNELS 6 Xposition Yposition Zposition Zrotation Xrotation Yrotation
              JOINT RightHandIndex2
              {
              OFFSET -2.670 0.000 0.000
              CHANNELS 6 Xposition Yposition Zposition Zrotation Xrotation Yrotation
                JOINT RightHandIndex3
                {
                OFFSET -2.130 0.000 0.000
                CHANNELS 6 Xposition Yposition Zposition Zrotation Xrotation Yrotation
                  JOINT RightHandIndex4
                  {
                  OFFSET -1.800 0.000 0.000
                  CHANNELS 6 Xposition Yposition Zposition Zrotation Xrotation Yrotation
                  }
                }
              }
            }
            JOINT RightHandMiddle1
            {
            OFFSET -9.220 0.670 0.550
            CHANNELS 6 Xposition Yposition Zposition Zrotation Xrotation Yrotation
              JOINT RightHandMiddle2
              {
              OFFSET -2.660 0.000 0.000
              CHANNELS 6 Xposition Yposition Zposition Zrotation Xrotation Yrotation
                JOINT RightHandMiddle3
                {
                OFFSET -2.280 0.000 0.000
                CHANNELS 6 Xposition Yposition Zposition Zrotation Xrotation Yrotation
                  JOINT RightHandMiddle4
                  {
                  OFFSET -1.500 0.000 0.000
                  CHANNELS 6 Xposition Yposition Zposition Zrotation Xrotation Yrotation
                  }
                }
              }
            }
            JOINT RightHandRing1
            {
            OFFSET -9.250 0.670 -1.130
            CHANNELS 6 Xposition Yposition Zposition Zrotation Xrotation Yrotation
              JOINT RightHandRing2
              {
              OFFSET -2.470 0.000 0.000
              CHANNELS 6 Xposition Yposition Zposition Zrotation Xrotation Yrotation
                JOINT RightHandRing3
                {
                OFFSET -2.210 0.000 0.000
                CHANNELS 6 Xposition Yposition Zposition Zrotation Xrotation Yrotation
                  JOINT RightHandRing4
                  {
                  OFFSET -1.800 0.000 0.000
                  CHANNELS 6 Xposition Yposition Zposition Zrotation Xrotation Yrotation
                  }
                }
              }
            }
            JOINT RightHandPinky1
            {
            OFFSET -9.350 0.660 -2.720
            CHANNELS 6 Xposition Yposition Zposition Zrotation Xrotation Yrotation
              JOINT RightHandPinky2
              {
              OFFSET -1.630 0.000 0.000
              CHANNELS 6 Xposition Yposition Zposition Zrotation Xrotation Yrotation
                JOINT RightHandPinky3
                {
                OFFSET -1.710 0.000 0.000
                CHANNELS 6 Xposition Yposition Zposition Zrotation Xrotation Yrotation
                  JOINT RightHandPinky4
                  {
                  OFFSET -1.800 0.000 0.000
                  CHANNELS 6 Xposition Yposition Zposition Zrotation Xrotation Yrotation
                  }
                }
              }
            }
          }
        }
      }
    }
    JOINT Neck
    {
      OFFSET -0.000 32.735 0.000
      CHANNELS 6 Xposition Yposition Zposition Zrotation Xrotation Yrotation
      JOINT Head
      {
        OFFSET -0.000 23.768 -0.000
        CHANNELS 6 Xposition Yposition Zposition Zrotation Xrotation Yrotation
        End Site
        {
          OFFSET -0.000 0.095 -0.000
        }
      }
    }
  }
}
MOTION
Frames:	6
Frame Time:	0.0333333
-13.7222 2.21225 -299.893 0.710912 -2.94167 -3.92931 8.09979 -7.90812 2.0834 4.25547 2.93928 -2.6641 2.98023e-06 -49.7277 4.76837e-05 -8.11082 1.22401 0.174426 -2.98023e-06 -38.7554 -4.76837e-05 28.8321 -5.29654 21.3108 -7.83831 -7.81968 1.40848 -3.91389 -0.541699 -2.46366 0 -47.9382 0 5.12963 8.19446 -0.733064 -1.19209e-05 -40.2226 -2.38419e-05 1.85946 2.205 1.00214 2.98023e-06 6.37098 -6.371 0.983577 -3.62233 -1.20666 -5.96046e-06 32.7348 -2.38419e-05 -25.7869 1.36604e-05 -9.70962 19.8363 -5.96046e-06 -2.38419e-05 -52.1123 -8.01971 4.36051 27.01 -7.45058e-07 0 -10.9738 3.14425 -15.7946 28.6157 2.98023e-06 -7.15256e-05 -4.30532 0.0153199 -1.42065 0.0062 0.0497 0.0339 0 0 0 0 0.0215 0 0 0 0 0 0.022 0 0 0 0 0 0.017 0 0 0 0 -0.0068 0.0873 0.0207 0 0 0 0 0.0267 0 0 0 0 0 0.0213 0 0 0 0 0 0.018 0 0 0 0 -0.0067 0.0922 0.0055 0 0 0 0 0.0266 0 0 0 0 0 0.0228 0 0 0 0 0 0.015 0 0 0 0 -0.0067 0.0925 -0.0113 0 0 0 0 0.0247 0 0 0 0 0 0.0221 0 0 0 0 0 0.018 0 0 0 0 -0.0066 0.0935 -0.0272 0 0 0 0 0.0163 0 0 0 0 0 0.0171 0 0 0 0 0 0.018 0 0 0 0 -5.96046e-06 32.7348 -2.38419e-05 21.1166 -8.53774e-07 9.77524 -19.7044 -1.19209e-05 0 59.962 19.7994 -3.18086 -29.2634 0 -2.38419e-05 -4.37799e-06 6.83019e-06 20.5087 -28.2224 1.78814e-05 -7.15256e-05 7.07672 0.0147823 -2.65971 -0.0062 0.0497 0.0339 0 0 0 0 0.0215 0 0 0 0 0 0.022 0 0 0 0 0 0.017 0 0 0 0 0.0068 0.0873 0.0207 0 0 0 0 0.0267 0 0 0 0 0 0.0213 0 0 0 0 0 0.018 0 0 0 0 0.0067 0.0922 0.0055 0 0 0 0 0.0266 0 0 0 0 0 0.0228 0 0 0 0 0 0.015 0 0 0 0 0.0067 0.0925 -0.0113 0 0 0 0 0.0247 0 0 0 0 0 0.0221 0 0 0 0 0 0.018 0 0 0 0 0.0066 0.0935 -0.0272 0 0 0 0 0.0163 0 0 0 0 0 0.0171 0 0 0 0 0 0.018 0 0 0 0 -5.96046e-06 32.7348 -2.38419e-05 -2.56653 7.26288 0.324681 8.9407e-06 25.0417 -2.38419e-05 9.60495e-06 -1.01919e-05 -4.26887e-07 
-13.7015 2.22601 -300.161 0.631854 -2.8523 -4.05468 8.11732 -7.91763 2.11477 4.35021 2.78677 -2.87197 -2.98023e-06 -49.7195 -4.76837e-05 -8.12938 0.969657 0.138505 -2.98023e-06 -38.8597 0 28.8924 -5.19096 21.3145 -7.8609 -7.83398 1.37796 -3.81345 -0.817033 -2.69508 0 -47.8756 -7.15256e-05 5.06263 8.29281 -0.73206 -1.19209e-05 -40.2319 2.38419e-05 1.92428 2.37521 1.03027 0 6.36596 -6.36592 0.968004 -3.58756 -1.1715 -2.98023e-06 32.7348 -2.38419e-05 -25.8996 1.25932e-05 -9.86779 19.8455 1.19209e-05 2.38419e-05 -54.6822 25.8455 4.69918 26.9651 -2.38419e-05 2.38419e-05 1.68248e-06 -5.12264e-06 -21.1177 28.0961 -1.19209e-05 -2.38419e-05 -3.95733 0.0210678 -1.92699 0.0062 0.0497 0.0339 0 0 0 0 0.0215 0 0 0 0 0 0.022 0 0 0 0 0 0.017 0 0 0 0 -0.0068 0.0873 0.0207 0 0 0 0 0.0267 0 0 0 0 0 0.0213 0 0 0 0 0 0.018 0 0 0 0 -0.0067 0.0922 0.0055 0 0 0 0 0.0266 0 0 0 0 0 0.0228 0 0 0 0 0 0.015 0 0 0 0 -0.0067 0.0925 -0.0113 0 0 0 0 0.0247 0 0 0 0 0 0.0221 0 0 0 0 0 0.018 0 0 0 0 -0.0066 0.0935 -0.0272 0 0 0 0 0.0163 0 0 0 0 0 0.0171 0 0 0 0 0 0.018 0 0 0 0 -2.98023e-06 32.7348 -2.38419e-05 21.2557 2.56132e-06 9.89857 -19.7844 3.57628e-05 -7.15256e-05 59.9651 20.0927 -3.04602 -29.1607 1.19209e-05 4.76837e-05 1.60526e-06 -1.70755e-06 21.8673 -28.4493 -5.96046e-06 4.76837e-05 7.96951 0.0208911 -2.1953 -0.0062 0.0497 0.0339 0 0 0 0 0.0215 0 0 0 0 0 0.022 0 0 0 0 0 0.017 0 0 0 0 0.0068 0.0873 0.0207 0 0 0 0 0.0267 0 0 0 0 0 0.0213 0 0 0 0 0 0.018 0 0 0 0 0.0067 0.0922 0.0055 0 0 0 0 0.0266 0 0 0 0 0 0.0228 0 0 0 0 0 0.015 0 0 0 0 0.0067 0.0925 -0.0113 0 0 0 0 0.0247 0 0 0 0 0 0.0221 0 0 0 0 0 0.018 0 0 0 0 0.0066 0.0935 -0.0272 0 0 0 0 0.0163 0 0 0 0 0 0.0171 0 0 0 0 0 0.018 0 0 0 0 -2.98023e-06 32.7348 -2.38419e-05 -2.29759 7.54011 0.301651 0 24.9302 2.38419e-05 9.93846e-06 -1.07789e-05 4.26887e-07 
-13.7015 2.22601 -300.161 0.631854 -2.8523 -4.05468 8.11732 -7.91763 2.11477 4.35021 2.78677 -2.87197 -2.98023e-06 -49.7195 -4.76837e-05 -8.12938 0.969657 0.138505 -2.98023e-06 -38.8597 0 28.8924 -5.19096 21.3145 -7.8609 -7.83398 1.37796 -3.81345 -0.817033 -2.69508 0 -47.8756 -7.15256e-05 5.06263 8.29281 -0.73206 -1.19209e-05 -40.2319 2.38419e-05 1.92428 2.37521 1.03027 0 6.36596 -6.36592 0.968004 -3.58756 -1.1715 -2.98023e-06 32.7348 -2.38419e-05 -25.8996 1.25932e-05 -9.86779 19.8455 1.19209e-05 2.38419e-05 -54.6822 25.8455 4.69918 26.9651 -2.38419e-05 2.38419e-05 1.68248e-06 -5.12264e-06 -21.1177 28.0961 -1.19209e-05 -2.38419e-05 -3.95733 0.0210678 -1.92699 0.0062 0.0497 0.0339 0 0 0 0 0.0215 0 0 0 0 0 0.022 0 0 0 0 0 0.017 0 0 0 0 -0.0068 0.0873 0.0207 0 0 0 0 0.0267 0 0 0 0 0 0.0213 0 0 0 0 0 0.018 0 0 0 0 -0.0067 0.0922 0.0055 0 0 0 0 0.0266 0 0 0 0 0 0.0228 0 0 0 0 0 0.015 0 0 0 0 -0.0067 0.0925 -0.0113 0 0 0 0 0.0247 0 0 0 0 0 0.0221 0 0 0 0 0 0.018 0 0 0 0 -0.0066 0.0935 -0.0272 0 0 0 0 0.0163 0 0 0 0 0 0.0171 0 0 0 0 0 0.018 0 0 0 0 -2.98023e-06 32.7348 -2.38419e-05 21.2557 2.56132e-06 9.89857 -19.7844 3.57628e-05 -7.15256e-05 59.9651 20.0927 -3.04602 -29.1607 1.19209e-05 4.76837e-05 1.60526e-06 -1.70755e-06 21.8673 -28.4493 -5.96046e-06 4.76837e-05 7.96951 0.0208911 -2.1953 -0.0062 0.0497 0.0339 0 0 0 0 0.0215 0 0 0 0 0 0.022 0 0 0 0 0 0.017 0 0 0 0 0.0068 0.0873 0.0207 0 0 0 0 0.0267 0 0 0 0 0 0.0213 0 0 0 0 0 0.018 0 0 0 0 0.0067 0.0922 0.0055 0 0 0 0 0.0266 0 0 0 0 0 0.0228 0 0 0 0 0 0.015 0 0 0 0 0.0067 0.0925 -0.0113 0 0 0 0 0.0247 0 0 0 0 0 0.0221 0 0 0 0 0 0.018 0 0 0 0 0.0066 0.0935 -0.0272 0 0 0 0 0.0163 0 0 0 0 0 0.0171 0 0 0 0 0 0.018 0 0 0 0 -2.98023e-06 32.7348 -2.38419e-05 -2.29759 7.54011 0.301651 0 24.9302 2.38419e-05 9.93846e-06 -1.07789e-05 4.26887e-07 
-13.6947 2.23503 -300.312 0.590348 -2.77593 -4.16672 8.12962 -7.92598 2.12739 4.40985 2.67934 -2.94122 5.96046e-06 -49.6844 0 -8.17024 0.875046 0.125625 0 -38.9357 -2.38419e-05 28.9259 -5.17782 21.3418 -7.87118 -7.84236 1.36862 -3.75664 -1.00723 -2.78014 5.96046e-06 -47.8235 0 5.03283 8.33269 -0.731205 0 -40.253 2.38419e-05 1.92099 2.53203 1.02334 0 6.36432 -6.36435 0.979452 -3.57928 -1.17455 0 32.7348 2.38419e-05 -25.9943 1.302e-05 -9.87603 19.862 -8.9407e-06 -2.38419e-05 -54.5585 26.1027 4.50465 26.9577 1.19209e-05 2.38419e-05 5.52601e-06 0 -22.0273 28.5145 2.38419e-05 -4.76837e-05 -4.05268 0.00589402 -1.19621 0.0062 0.0497 0.0339 0 0 0 0 0.0215 0 0 0 0 0 0.022 0 0 0 0 0 0.017 0 0 0 0 -0.0068 0.0873 0.0207 0 0 0 0 0.0267 0 0 0 0 0 0.0213 0 0 0 0 0 0.018 0 0 0 0 -0.0067 0.0922 0.0055 0 0 0 0 0.0266 0 0 0 0 0 0.0228 0 0 0 0 0 0.015 0 0 0 0 -0.0067 0.0925 -0.0113 0 0 0 0 0.0247 0 0 0 0 0 0.0221 0 0 0 0 0 0.018 0 0 0 0 -0.0066 0.0935 -0.0272 0 0 0 0 0.0163 0 0 0 0 0 0.0171 0 0 0 0 0 0.018 0 0 0 0 0 32.7348 2.38419e-05 21.2921 -8.53774e-07 9.89587 -19.8226 1.78814e-05 -4.76837e-05 59.9806 19.9988 -2.7101 -29.0515 1.78814e-05 4.76837e-05 -1.40163e-06 3.4151e-06 22.3143 -28.5622 -5.96046e-06 7.15256e-05 8.56956 0.0215778 -2.02922 -0.0062 0.0497 0.0339 0 0 0 0 0.0215 0 0 0 0 0 0.022 0 0 0 0 0 0.017 0 0 0 0 0.0068 0.0873 0.0207 0 0 0 0 0.0267 0 0 0 0 0 0.0213 0 0 0 0 0 0.018 0 0 0 0 0.0067 0.0922 0.0055 0 0 0 0 0.0266 0 0 0 0 0 0.0228 0 0 0 0 0 0.015 0 0 0 0 0.0067 0.0925 -0.0113 0 0 0 0 0.0247 0 0 0 0 0 0.0221 0 0 0 0 0 0.018 0 0 0 0 0.0066 0.0935 -0.0272 0 0 0 0 0.0163 0 0 0 0 0 0.0171 0 0 0 0 0 0.018 0 0 0 0 0 32.7348 2.38419e-05 -2.19234 7.59494 0.2899 -2.98023e-06 24.8957 0 1.00452e-05 -9.92512e-06 -8.53774e-07 
-13.6878 2.24167 -300.45 0.552839 -2.71005 -4.25537 8.1416 -7.93551 2.14429 4.46231 2.60763 -3.04594 8.9407e-06 -49.6712 0 -8.18886 0.703875 0.101287 -5.96046e-06 -38.9624 0 29.162 -5.03008 21.4784 -7.88369 -7.85305 1.35415 -3.70382 -1.18448 -2.89753 5.96046e-06 -47.7723 -2.38419e-05 4.99847 8.37837 -0.730139 1.19209e-05 -40.2779 -2.38419e-05 1.92172 2.66522 1.01925 0 6.36229 -6.36225 0.985001 -3.56424 -1.16698 -2.98023e-06 32.7348 -2.38419e-05 -26.0634 1.13125e-05 -9.89379 19.8814 -1.19209e-05 -2.38419e-05 -54.4502 26.1045 4.30671 26.913 0 -7.15256e-05 1.32524e-05 5.12264e-06 -22.7217 28.8861 4.76837e-05 1.19209e-05 -4.15399 -0.0108673 -0.335638 0.0062 0.0497 0.0339 0 0 0 0 0.0215 0 0 0 0 0 0.022 0 0 0 0 0 0.017 0 0 0 0 -0.0068 0.0873 0.0207 0 0 0 0 0.0267 0 0 0 0 0 0.0213 0 0 0 0 0 0.018 0 0 0 0 -0.0067 0.0922 0.0055 0 0 0 0 0.0266 0 0 0 0 0 0.0228 0 0 0 0 0 0.015 0 0 0 0 -0.0067 0.0925 -0.0113 0 0 0 0 0.0247 0 0 0 0 0 0.0221 0 0 0 0 0 0.018 0 0 0 0 -0.0066 0.0935 -0.0272 0 0 0 0 0.0163 0 0 0 0 0 0.0171 0 0 0 0 0 0.018 0 0 0 0 -2.98023e-06 32.7348 -2.38419e-05 21.3416 1.70755e-06 9.90321 -19.8626 0 2.38419e-05 60.0073 20.2117 -2.41444 -28.9583 5.96046e-06 9.53674e-05 -5.35034e-06 1.70755e-06 22.827 -28.5344 -5.96046e-06 -9.53674e-05 9.04884 0.0254957 -1.74464 -0.0062 0.0497 0.0339 0 0 0 0 0.0215 0 0 0 0 0 0.022 0 0 0 0 0 0.017 0 0 0 0 0.0068 0.0873 0.0207 0 0 0 0 0.0267 0 0 0 0 0 0.0213 0 0 0 0 0 0.018 0 0 0 0 0.0067 0.0922 0.0055 0 0 0 0 0.0266 0 0 0 0 0 0.0228 0 0 0 0 0 0.015 0 0 0 0 0.0067 0.0925 -0.0113 0 0 0 0 0.0247 0 0 0 0 0 0.0221 0 0 0 0 0 0.018 0 0 0 0 0.0066 0.0935 -0.0272 0 0 0 0 0.0163 0 0 0 0 0 0.0171 0 0 0 0 0 0.018 0 0 0 0 -2.98023e-06 32.7348 -2.38419e-05 -2.10559 7.54926 0.276753 2.98023e-06 24.8807 7.15256e-05 1.01652e-05 -1.02453e-05 -8.53774e-07 
-13.6848 2.24503 -300.579 0.528825 -2.66413 -4.3604 8.15225 -7.94303 2.1554 4.50039 2.55138 -3.10985 5.96046e-06 -49.6565 -2.38419e-05 -8.23854 0.605896 0.0877289 8.9407e-06 -38.9271 -2.38419e-05 29.5737 -4.78014 21.7128 -7.89372 -7.86037 1.34556 -3.66683 -1.33031 -2.97158 0 -47.7213 -2.38419e-05 4.96654 8.42117 -0.729134 -1.19209e-05 -40.2994 -4.76837e-05 1.95688 2.74591 1.03465 5.96046e-06 6.36152 -6.36148 0.990141 -3.5477 -1.16169 -1.19209e-05 32.7348 -2.38419e-05 -26.1261 1.21663e-05 -9.92717 19.9072 8.9407e-06 4.76837e-05 -54.3542 25.8334 4.1608 26.8666 -2.38419e-05 2.38419e-05 4.18281e-07 -1.19528e-05 -23.3561 29.1818 2.38419e-05 -2.38419e-05 -4.32398 -0.02086 0.335975 0.0062 0.0497 0.0339 0 0 0 0 0.0215 0 0 0 0 0 0.022 0 0 0 0 0 0.017 0 0 0 0 -0.0068 0.0873 0.0207 0 0 0 0 0.0267 0 0 0 0 0 0.0213 0 0 0 0 0 0.018 0 0 0 0 -0.0067 0.0922 0.0055 0 0 0 0 0.0266 0 0 0 0 0 0.0228 0 0 0 0 0 0.015 0 0 0 0 -0.0067 0.0925 -0.0113 0 0 0 0 0.0247 0 0 0 0 0 0.0221 0 0 0 0 0 0.018 0 0 0 0 -0.0066 0.0935 -0.0272 0 0 0 0 0.0163 0 0 0 0 0 0.0171 0 0 0 0 0 0.018 0 0 0 0 -1.19209e-05 32.7348 -2.38419e-05 21.4098 -8.53774e-07 9.93747 -19.8867 2.38419e-05 0.000143051 59.9958 20.902 -1.977 -28.8035 -5.96046e-06 -7.15256e-05 -3.70913e-06 0 22.9675 -28.5737 5.96046e-06 -7.15256e-05 9.35887 0.0374491 -1.20416 -0.0062 0.0497 0.0339 0 0 0 0 0.0215 0 0 0 0 0 0.022 0 0 0 0 0 0.017 0 0 0 0 0.0068 0.0873 0.0207 0 0 0 0 0.0267 0 0 0 0 0 0.0213 0 0 0 0 0 0.018 0 0 0 0 0.0067 0.0922 0.0055 0 0 0 0 0.0266 0 0 0 0 0 0.0228 0 0 0 0 0 0.015 0 0 0 0 0.0067 0.0925 -0.0113 0 0 0 0 0.0247 0 0 0 0 0 0.0221 0 0 0 0 0 0.018 0 0 0 0 0.0066 0.0935 -0.0272 0 0 0 0 0.0163 0 0 0 0 0 0.0171 0 0 0 0 0 0.018 0 0 0 0 -1.19209e-05 32.7348 -2.38419e-05 -2.04861 7.48995 0.267153 5.96046e-06 24.88 0 9.89844e-06 -1.01386e-05 -4.26887e-07 
